HIERARCHY
ROOT Hips
{
	OFFSET 0.000000 0.000000 0.000000
	CHANNELS 6 Xposition Yposition Zposition Xrotation Yrotation Zrotation
	JOINT LeftUpLeg_virtual
	{
		OFFSET 0.000000 0.000000 0.000000
		CHANNELS 3 Xrotation Yrotation Zrotation
		JOINT LeftUpLeg
		{
			OFFSET 11.394100 -6.187798 -0.413800
			CHANNELS 3 Xrotation Yrotation Zrotation
			JOINT LeftLeg
			{
				OFFSET 0.430247 -32.302673 3.732800
				CHANNELS 3 Xrotation Yrotation Zrotation
				JOINT LeftFoot
				{
					OFFSET -0.430247 -48.264931 -6.423300
					CHANNELS 3 Xrotation Yrotation Zrotation
					JOINT LeftToeBase
					{
						OFFSET 4.230900 -16.068199 23.438400
						CHANNELS 3 Xrotation Yrotation Zrotation
						JOINT LeftToe_End
						{
							OFFSET 4.510700 0.695400 19.974600
							CHANNELS 3 Xrotation Yrotation Zrotation
							End Site
							{
								OFFSET 0 0 0
							}
						}
					}
				}
			}
		}
	}
	JOINT RightUpLeg_virtual
	{
		OFFSET 0.000000 0.000000 0.000000
		CHANNELS 3 Xrotation Yrotation Zrotation
		JOINT RightUpLeg
		{
			OFFSET -11.333700 -6.187798 -0.413800
			CHANNELS 3 Xrotation Yrotation Zrotation
			JOINT RightLeg
			{
				OFFSET -0.430392 -32.302628 3.733000
				CHANNELS 3 Xrotation Yrotation Zrotation
				JOINT RightFoot
				{
					OFFSET 0.430392 -48.264973 -6.423500
					CHANNELS 3 Xrotation Yrotation Zrotation
					JOINT RightToeBase
					{
						OFFSET -4.230900 -16.068199 23.438400
						CHANNELS 3 Xrotation Yrotation Zrotation
						JOINT RightToe_End
						{
							OFFSET -4.510700 0.695400 19.974600
							CHANNELS 3 Xrotation Yrotation Zrotation
							End Site
							{
								OFFSET 0 0 0
							}
						}
					}
				}
			}
		}
	}
	JOINT Spine_virtual
	{
		OFFSET 0.000000 0.000000 0.000000
		CHANNELS 3 Xrotation Yrotation Zrotation
		JOINT Spine
		{
			OFFSET -0.002400 12.777504 0.315300
			CHANNELS 3 Xrotation Yrotation Zrotation
			JOINT Spine1
			{
				OFFSET -0.002067 5.816869 0.032633
				CHANNELS 3 Xrotation Yrotation Zrotation
				JOINT Spine1_split
				{
					OFFSET -0.002067 5.816869 0.032633
					CHANNELS 3 Xrotation Yrotation Zrotation
					JOINT Spine2
					{
						OFFSET -0.002067 5.816869 0.032633
						CHANNELS 3 Xrotation Yrotation Zrotation
						JOINT Neck_virtual
						{
							OFFSET 0.000000 0.000000 0.000000
							CHANNELS 3 Xrotation Yrotation Zrotation
							JOINT Neck
							{
								OFFSET -0.003700 21.199493 -0.826900
								CHANNELS 3 Xrotation Yrotation Zrotation
								JOINT Head
								{
									OFFSET 0.000000 20.442200 4.834800
									CHANNELS 3 Xrotation Yrotation Zrotation
									JOINT HeadTop_End
									{
										OFFSET 0.000000 34.668396 4.968400
										CHANNELS 3 Xrotation Yrotation Zrotation
										End Site
										{
											OFFSET 0 0 0
										}
									}
								}
							}
						}
						JOINT LeftShoulder_virtual
						{
							OFFSET 0.000000 0.000000 0.000000
							CHANNELS 3 Xrotation Yrotation Zrotation
							JOINT LeftShoulder
							{
								OFFSET 3.288150 8.794197 -1.372250
								CHANNELS 3 Xrotation Yrotation Zrotation
								JOINT LeftShoulder_split
								{
									OFFSET 3.288150 8.794197 -1.372250
									CHANNELS 3 Xrotation Yrotation Zrotation
									JOINT LeftArm
									{
										OFFSET 11.953299 -2.279007 -0.146200
										CHANNELS 3 Xrotation Yrotation Zrotation
										JOINT LeftForeArm
										{
											OFFSET 18.448900 0.000000 0.000000
											CHANNELS 3 Xrotation Yrotation Zrotation
											JOINT LeftHand
											{
												OFFSET 29.527798 0.000000 0.000000
												CHANNELS 3 Xrotation Yrotation Zrotation
												End Site
												{
													OFFSET 0 0 0
												}
											}
										}
									}
								}
							}
						}
						JOINT RightShoulder_virtual
						{
							OFFSET 0.000000 0.000000 0.000000
							CHANNELS 3 Xrotation Yrotation Zrotation
							JOINT RightShoulder
							{
								OFFSET -3.249400 8.794197 -1.372250
								CHANNELS 3 Xrotation Yrotation Zrotation
								JOINT RightShoulder_split
								{
									OFFSET -3.249400 8.794197 -1.372250
									CHANNELS 3 Xrotation Yrotation Zrotation
									JOINT RightArm
									{
										OFFSET -11.953299 -2.279007 -0.146200
										CHANNELS 3 Xrotation Yrotation Zrotation
										JOINT RightForeArm
										{
											OFFSET -18.448900 0.000000 0.000000
											CHANNELS 3 Xrotation Yrotation Zrotation
											JOINT RightHand
											{
												OFFSET -29.527802 0.000000 0.000000
												CHANNELS 3 Xrotation Yrotation Zrotation
												End Site
												{
													OFFSET 0 0 0
												}
											}
										}
									}
								}
							}
						}
					}
				}
			}
		}
	}
}
MOTION
Frames: 11
Frame Time: 0.03333333
-1.441212 87.974648 1.766861 0.000000 0.000000 0.000000 -2.403051 -12.582050 -1.230510 -37.028242 13.344771 12.364250 49.666045 5.546899 12.057843 -14.505044 2.455298 -11.796520 -2.789737 0.057459 -0.750789 0.000000 0.000000 0.000000 -2.784106 -10.112416 -0.848497 -33.398566 -21.423947 -10.326519 46.996527 -2.866878 -14.465589 -15.882413 0.820495 9.734060 0.325762 0.435197 -1.652213 0.000000 0.000000 0.000000 -1.646863 -15.338855 -1.170634 3.805798 0.539775 1.284666 1.525760 1.480733 0.027842 2.418368 -0.856360 -0.387340 0.000000 0.000000 0.000000 0.524132 1.249901 0.181101 0.905527 -0.256181 4.190934 10.728623 12.764478 -3.683664 0.000000 0.000000 0.000000 1.700155 1.198262 -0.507109 0.620656 0.035525 16.586373 1.530670 1.723042 -2.408096 -53.283259 -50.919108 -50.482044 -3.571593 -59.591536 -3.432029 0.000000 0.000000 0.000000 1.380669 1.591120 0.494399 0.571650 -1.691811 1.596447 -0.247097 2.389865 -0.058800 -112.695109 75.226133 107.204108 -2.612374 25.503587 1.279941 0.000000 0.000000 0.000000 
-1.263020 87.936005 1.488617 0.000000 0.000000 0.000000 -2.297621 -12.647655 -1.192089 -36.878343 13.097653 12.313116 49.417095 5.803163 12.022665 -14.671975 2.477234 -11.673952 -2.334526 0.095464 -1.029406 0.000000 0.000000 0.000000 -2.777561 -10.295494 -0.783887 -33.141403 -21.488311 -10.418814 46.913035 -3.096478 -14.224603 -15.936529 0.710541 9.549531 0.730497 0.491640 -1.748539 0.000000 0.000000 0.000000 -1.985090 -15.606487 -1.282094 3.607224 0.601404 1.302783 1.235919 1.494710 0.094838 1.878563 -0.812700 -0.156137 0.000000 0.000000 0.000000 0.734617 1.261331 0.194192 0.802845 -0.361657 4.320971 11.518224 12.912942 -4.061385 0.000000 0.000000 0.000000 1.694726 1.215956 -0.414303 0.541486 0.288175 16.482954 1.878680 1.466272 -2.558936 -51.118068 -50.332593 -49.900549 -2.827647 -59.566414 -2.759367 0.000000 0.000000 0.000000 1.407234 1.566934 0.475838 0.476234 -2.077787 1.122049 0.597409 2.492693 -0.304845 -110.435341 75.599635 104.863997 -2.363085 26.149198 1.181266 0.000000 0.000000 0.000000 
-0.940951 87.824173 1.182144 0.000000 0.000000 0.000000 -2.235084 -12.965113 -1.143892 -36.770313 12.873424 12.071337 49.347157 6.285258 11.978438 -14.757322 2.591400 -11.853600 -1.790105 0.158233 -1.239434 0.000000 0.000000 0.000000 -2.820439 -10.799937 -0.777456 -33.184457 -21.485695 -10.566257 47.121642 -3.294432 -13.933269 -15.666217 0.610601 9.572861 0.462521 0.598796 -1.956027 0.000000 0.000000 0.000000 -2.208693 -16.309660 -1.327514 3.364329 0.868395 1.389055 1.027691 1.722756 0.292082 1.641322 -1.304157 0.245123 0.000000 0.000000 0.000000 0.958368 1.495008 0.264705 0.493027 -0.363199 4.626388 12.032058 13.558769 -4.798391 0.000000 0.000000 0.000000 1.673475 1.472768 -0.188441 0.370120 0.425213 16.148118 2.148715 1.225336 -2.180213 -48.338243 -50.312809 -48.928873 -2.485597 -60.069239 -2.295085 0.000000 0.000000 0.000000 1.528235 1.732465 0.489221 0.331884 -2.172802 0.306246 1.325540 2.343254 -0.315152 -110.176299 76.417283 104.102718 -2.018866 27.608586 1.044108 0.000000 0.000000 0.000000 
-0.487983 87.660751 0.863483 0.000000 0.000000 0.000000 -2.214669 -13.472892 -1.080896 -36.708080 12.701797 11.612106 49.469923 6.925435 11.927804 -14.787440 2.781453 -12.238050 -1.411011 0.220804 -1.279765 0.000000 0.000000 0.000000 -2.820551 -11.682475 -0.782938 -33.499049 -21.301123 -10.701999 47.521591 -3.496631 -13.660221 -15.284828 0.557247 9.578827 -0.186884 0.707068 -2.082596 0.000000 0.000000 0.000000 -2.256677 -17.312653 -1.290698 3.128029 1.280392 1.625493 1.067830 2.096670 0.622918 2.004614 -2.434711 0.758924 0.000000 0.000000 0.000000 1.245770 1.892385 0.448977 -0.012724 -0.225531 4.939975 12.101764 14.642180 -5.788789 0.000000 0.000000 0.000000 1.661139 1.892845 0.161618 0.163634 0.293727 15.705784 2.205952 1.340472 -1.748622 -45.660498 -50.632869 -47.681790 -2.507016 -60.509725 -2.019950 0.000000 0.000000 0.000000 1.764294 2.044960 0.597051 0.188546 -1.881647 -0.630139 1.825769 1.884735 -0.161149 -112.356147 77.431218 105.299496 -1.676162 29.213952 0.853745 0.000000 0.000000 0.000000 
0.134239 87.442162 0.573505 0.000000 0.000000 0.000000 -2.244442 -14.115168 -0.976624 -36.597929 12.627260 10.925078 49.682653 7.657265 11.820347 -14.825875 3.022857 -12.584684 -1.322973 0.278696 -1.169580 0.000000 0.000000 0.000000 -2.812154 -12.785012 -0.778962 -34.089904 -20.858228 -10.829405 48.123409 -3.800092 -13.436288 -14.797402 0.509185 9.316758 -0.428884 0.785772 -1.951396 0.000000 0.000000 0.000000 -2.087038 -18.269329 -1.184826 2.949823 1.688040 2.041701 1.357055 2.476691 1.055985 2.314490 -3.397696 0.821344 0.000000 0.000000 0.000000 1.581076 2.286914 0.779146 -0.688092 0.064569 5.110723 11.778009 15.981845 -6.844089 0.000000 0.000000 0.000000 1.679147 2.318575 0.615010 -0.057271 -0.153974 15.259529 1.836027 1.808238 -1.601385 -43.353816 -50.912995 -46.311022 -2.796155 -60.332912 -1.875303 0.000000 0.000000 0.000000 2.069640 2.400205 0.848385 0.059973 -1.243873 -1.538124 2.230593 1.091919 0.118877 -117.215404 78.170969 108.652115 -1.474128 30.432406 0.660540 0.000000 0.000000 0.000000 
0.909151 87.205887 0.318993 0.000000 0.000000 0.000000 -2.326663 -14.851529 -0.819254 -36.433523 12.599970 10.049789 49.842810 8.357291 11.622411 -14.892778 3.256742 -12.752462 -1.417801 0.339611 -1.036490 0.000000 0.000000 0.000000 -2.739173 -13.899578 -0.707332 -35.202570 -20.172527 -11.089254 49.029137 -4.190611 -13.268819 -13.948046 0.448882 8.942043 -0.202047 0.814376 -1.557844 0.000000 0.000000 0.000000 -1.791163 -19.062694 -1.078485 2.848948 1.906878 2.605326 1.832800 2.704030 1.536106 2.661802 -4.109818 0.831449 0.000000 0.000000 0.000000 1.958369 2.493098 1.220813 -1.451928 0.429163 5.056915 11.256045 17.297376 -7.649715 0.000000 0.000000 0.000000 1.793917 2.566719 1.118908 -0.296860 -0.777551 15.031626 1.603573 2.612716 -1.684981 -42.036331 -51.253866 -45.539542 -3.127599 -59.493898 -1.760200 0.000000 0.000000 0.000000 2.406205 2.641827 1.234702 -0.053624 -0.466105 -2.296990 2.496357 0.400670 0.463691 -122.616266 78.136415 112.295810 -1.494682 30.920772 0.488084 0.000000 0.000000 0.000000 
1.759244 87.009262 0.089703 0.000000 0.000000 0.000000 -2.435670 -15.562682 -0.649820 -36.225957 12.507615 9.147219 49.907987 8.859015 11.349924 -14.920157 3.396621 -12.707468 -1.440133 0.403271 -1.006241 0.000000 0.000000 0.000000 -2.607871 -14.711594 -0.593705 -36.822065 -19.322322 -11.597695 50.109847 -4.436736 -13.225821 -12.563739 0.456322 8.997204 -0.023646 0.787304 -1.166282 0.000000 0.000000 0.000000 -1.490062 -19.652618 -1.056327 2.813346 1.808950 3.194561 2.392294 2.634523 1.963436 2.476463 -3.929890 0.470133 0.000000 0.000000 0.000000 2.341128 2.398031 1.671237 -1.996745 0.761800 4.863292 10.958439 18.129443 -7.756709 0.000000 0.000000 0.000000 2.031155 2.498054 1.593691 -0.576427 -1.224420 15.101594 1.352276 3.240364 -2.187579 -41.789044 -51.952850 -45.809348 -3.070727 -58.230737 -1.426021 0.000000 0.000000 0.000000 2.683898 2.590855 1.662502 -0.163456 0.118403 -2.851440 2.720691 0.124288 0.739625 -126.184166 77.439114 114.517206 -1.694840 30.730681 0.310432 0.000000 0.000000 0.000000 
2.595375 86.880089 -0.044933 0.000000 0.000000 0.000000 -2.547235 -16.115171 -0.550219 -35.932208 12.301000 8.375823 49.837886 9.043326 10.984821 -15.048406 3.353014 -12.400470 -1.232177 0.458500 -1.098420 0.000000 0.000000 0.000000 -2.467898 -15.044356 -0.539710 -38.579579 -18.576788 -12.271618 51.074365 -4.464767 -13.358017 -10.848115 0.527002 9.684591 -0.081194 0.738357 -1.010635 0.000000 0.000000 0.000000 -1.343296 -19.849013 -1.257308 2.815928 1.339435 3.630421 2.862253 2.185134 2.224598 2.076942 -3.122592 -0.219777 0.000000 0.000000 0.000000 2.639164 1.905734 1.985434 -2.027361 0.932727 4.686853 11.201736 17.887733 -6.695108 0.000000 0.000000 0.000000 2.364384 2.023430 1.928448 -0.939722 -1.294327 15.651349 1.020422 3.640834 -2.724974 -42.248664 -53.320220 -46.994270 -2.587935 -56.773219 -0.873378 0.000000 0.000000 0.000000 2.879243 2.144934 1.997267 -0.291133 0.300178 -3.225678 2.999575 0.121422 0.883141 -126.698985 76.265230 114.675789 -2.009137 30.164977 0.102740 0.000000 0.000000 0.000000 
3.232228 86.820152 0.029045 0.000000 0.000000 0.000000 -2.653715 -16.396661 -0.694464 -35.572199 11.919871 7.970575 49.594308 8.867133 10.552900 -15.417065 3.087831 -11.828895 -0.920733 0.479782 -1.218029 0.000000 0.000000 0.000000 -2.383107 -14.915771 -0.722437 -39.932151 -18.319845 -12.869128 51.650983 -4.426754 -13.595619 -9.342637 0.533267 10.665016 -0.043193 0.682989 -1.151097 0.000000 0.000000 0.000000 -1.487990 -19.659976 -1.816683 2.800554 0.538703 3.704456 3.223667 1.392188 2.208094 1.843293 -1.799277 -0.560439 0.000000 0.000000 0.000000 2.804251 1.084588 2.023077 -1.277993 0.862877 4.733728 12.280951 16.198653 -4.118683 0.000000 0.000000 0.000000 2.787200 1.150485 2.007470 -1.370844 -0.982617 16.805868 0.433828 3.855430 -3.017248 -43.358618 -55.424735 -48.926537 -1.685883 -55.211971 -0.116890 0.000000 0.000000 0.000000 3.027101 1.320982 2.076454 -0.414473 -0.057268 -3.271910 3.046714 0.370686 0.755160 -124.402443 74.992567 113.229128 -2.346132 29.549092 -0.130832 0.000000 0.000000 0.000000 
3.538977 86.835999 0.250076 0.000000 0.000000 0.000000 -2.807237 -16.282420 -1.262778 -35.174658 11.366950 8.144337 49.268412 8.331372 10.111768 -16.010339 2.659053 -11.079815 -0.735786 0.463348 -1.287664 0.000000 0.000000 0.000000 -2.423317 -14.262792 -1.359499 -40.269317 -18.899692 -13.050998 51.634079 -4.523933 -13.808320 -8.693501 0.315953 11.476725 0.377428 0.634647 -1.477951 0.000000 0.000000 0.000000 -1.809595 -19.116316 -2.806422 2.712079 -0.438972 3.280493 3.477590 0.391149 1.837258 1.365907 -0.447426 -0.817081 0.000000 0.000000 0.000000 2.782415 0.109129 1.681064 0.322025 0.577350 5.095154 14.189167 13.266434 -0.101260 0.000000 0.000000 0.000000 3.244065 0.058927 1.744157 -1.799599 -0.462200 18.428064 -0.522395 3.910944 -3.057841 -45.073019 -57.717735 -51.414150 -0.535158 -53.454713 0.736266 0.000000 0.000000 0.000000 3.136228 0.274470 1.810950 -0.514623 -0.849313 -3.031751 3.123767 0.467119 0.410263 -120.668966 74.032666 111.299333 -2.652662 29.164191 -0.348037 0.000000 0.000000 0.000000 
3.432689 86.876076 0.602104 0.000000 0.000000 0.000000 -2.974126 -15.825721 -2.426519 -34.890338 10.583530 9.111004 49.089157 7.524416 9.684961 -16.721264 2.173986 -10.348176 -0.794027 0.406827 -1.261028 0.000000 0.000000 0.000000 -2.542180 -13.217971 -2.585325 -39.339069 -20.424817 -12.566471 51.044958 -4.893572 -13.855808 -8.974033 -0.199732 11.806725 0.732644 0.589109 -1.806446 0.000000 0.000000 0.000000 -2.236221 -18.361637 -4.281045 2.519047 -1.393255 2.319946 3.635019 -0.624202 1.120345 1.168606 0.306124 -0.576820 0.000000 0.000000 0.000000 2.589411 -0.811368 0.937510 2.349332 0.097529 5.592337 16.391843 9.710366 4.739661 0.000000 0.000000 0.000000 3.650642 -1.034248 1.122025 -2.133437 -0.033388 20.285720 -1.261671 3.916917 -2.564073 -47.808821 -59.718181 -54.834504 0.487642 -51.591482 1.412466 0.000000 0.000000 0.000000 3.237074 -0.748445 1.195336 -0.578861 -1.816685 -2.563267 3.206157 0.256298 0.012808 -116.566822 73.733996 109.336377 -2.887865 29.016044 -0.533639 0.000000 0.000000 0.000000 
